<svg width="47" height="47" viewBox="0 0 47 47" fill="none" xmlns="http://www.w3.org/2000/svg">
<path d="M47 30.2241V35.25H44.0625V31.4634L41.561 28.939L41.6299 28.8701C41.0179 29.2067 40.3371 29.375 39.5874 29.375C38.9142 29.375 38.2946 29.2373 37.7285 28.9619L35.25 31.4634V35.25H32.3125V30.2241L35.6401 26.9194L35.5713 26.7588L29.811 13.8613L20.4478 23.5229C20.4784 23.7677 20.5013 24.0049 20.5166 24.2344C20.5319 24.4639 20.5472 24.7087 20.5625 24.9688V44.0625H23.5V47H0V44.0625H2.9375V24.9688C2.9375 23.806 3.15169 22.7121 3.58008 21.687C4.00846 20.6619 4.58984 19.7516 5.32422 18.9561C6.05859 18.1605 6.93066 17.5179 7.94043 17.0283C8.9502 16.5387 10.0365 16.2557 11.1992 16.1792L25.1523 1.79004C25.7031 1.20866 26.3457 0.764974 27.0801 0.458984C27.8145 0.152995 28.5794 0 29.375 0C29.9105 0 30.446 0.0764974 30.9814 0.229492C31.5169 0.382487 32.0295 0.611979 32.519 0.917969C33.0086 1.22396 33.4447 1.57585 33.8271 1.97363C34.2096 2.37142 34.5156 2.8304 34.7451 3.35059L43.5576 23.041C43.6953 23.347 43.7948 23.6606 43.856 23.9819C43.9172 24.3032 43.9478 24.6245 43.9478 24.9458C43.9478 25.313 43.9095 25.6725 43.833 26.0244C43.7565 26.3763 43.6265 26.7205 43.4429 27.0571L43.6265 26.8735L47 30.2241ZM17.625 44.0625V24.9688C17.625 24.1579 17.472 23.4006 17.166 22.6968C16.86 21.993 16.4393 21.3657 15.9038 20.8149C15.3683 20.2642 14.7487 19.8434 14.0449 19.5527C13.3411 19.262 12.5762 19.109 11.75 19.0938C10.9391 19.0938 10.1818 19.2467 9.47803 19.5527C8.77425 19.8587 8.14697 20.2795 7.59619 20.8149C7.04541 21.3504 6.62467 21.9701 6.33398 22.6738C6.04329 23.3776 5.8903 24.1426 5.875 24.9688V44.0625H17.625ZM14.7793 16.6841C15.7279 17.036 16.5923 17.5332 17.3726 18.1758C18.1528 18.8184 18.8031 19.5757 19.3232 20.4478L31.4863 7.91748C32.0371 7.3361 32.3125 6.65527 32.3125 5.875C32.3125 5.46191 32.236 5.07943 32.083 4.72754C31.93 4.37565 31.7235 4.06966 31.4634 3.80957C31.2033 3.54948 30.8896 3.33529 30.5225 3.16699C30.1553 2.9987 29.7728 2.9222 29.375 2.9375C28.5335 2.9375 27.8298 3.23584 27.2637 3.83252L14.7793 16.6841ZM34.1714 9.24854C33.896 9.69222 33.5594 10.0977 33.1616 10.4648C32.7638 10.832 32.3813 11.2069 32.0142 11.5894L36.5352 21.71L39.2202 20.5625L34.1714 9.24854ZM39.5874 26.4375C40.0311 26.4375 40.383 26.2922 40.6431 26.0015C40.9032 25.7108 41.0332 25.3589 41.0332 24.9458C41.0332 24.6398 40.9644 24.3491 40.8267 24.0737C40.689 23.7983 40.5513 23.5229 40.4136 23.2476L37.7285 24.395C37.8203 24.6245 37.9121 24.8617 38.0039 25.1064C38.0957 25.3512 38.2104 25.5731 38.3481 25.772C38.4858 25.9709 38.6465 26.1315 38.8301 26.2539C39.0137 26.3763 39.2661 26.4375 39.5874 26.4375ZM11.75 23.5C12.1631 23.5 12.5456 23.5765 12.8975 23.7295C13.2493 23.8825 13.5553 24.089 13.8154 24.3491C14.0755 24.6092 14.2897 24.9229 14.458 25.29C14.6263 25.6572 14.7028 26.0397 14.6875 26.4375C14.6875 26.8506 14.611 27.2331 14.458 27.585C14.305 27.9368 14.0985 28.2428 13.8384 28.5029C13.5783 28.763 13.2646 28.9772 12.8975 29.1455C12.5303 29.3138 12.1478 29.3903 11.75 29.375C11.3369 29.375 10.9544 29.2985 10.6025 29.1455C10.2507 28.9925 9.94466 28.786 9.68457 28.5259C9.42448 28.2658 9.21029 27.9521 9.04199 27.585C8.8737 27.2178 8.7972 26.8353 8.8125 26.4375C8.8125 26.0244 8.889 25.6419 9.04199 25.29C9.19499 24.9382 9.40153 24.6322 9.66162 24.3721C9.92171 24.112 10.2354 23.8978 10.6025 23.7295C10.9697 23.5612 11.3522 23.4847 11.75 23.5Z" fill="#069C67"/>
</svg>
