<svg width="39" height="47" viewBox="0 0 39 47" fill="none" xmlns="http://www.w3.org/2000/svg">
<path d="M0 46H39M12.9597 29.4416C13.8854 30.4751 15.0433 31.2744 16.3384 31.7739C17.6334 32.2735 19.0286 32.4589 20.4093 32.3151C21.7901 32.1712 23.1169 31.7021 24.2809 30.9464C25.4449 30.1906 26.4128 29.1698 27.1051 27.9677C27.7974 26.7656 28.1943 25.4166 28.2632 24.0314C28.3322 22.6463 28.0712 21.2646 27.5017 19.9999C26.9321 18.7351 26.0704 17.6234 24.9872 16.756C23.904 15.8886 22.6302 15.2904 21.2706 15.0104M21.2706 15.0104L16.575 19.7013L9.75 12.8831L20.4165 2.22727C20.7443 1.89978 21.1334 1.63999 21.5616 1.46274C21.9899 1.2855 22.4489 1.19427 22.9125 1.19427C23.3761 1.19427 23.8351 1.2855 24.2634 1.46274C24.6916 1.63999 25.0807 1.89978 25.4085 2.22727L27.2415 4.05844C27.5693 4.38587 27.8294 4.7746 28.0068 5.20244C28.1842 5.63028 28.2755 6.08885 28.2755 6.55195C28.2755 7.01505 28.1842 7.47361 28.0068 7.90145C27.8294 8.32929 27.5693 8.71803 27.2415 9.04545L25.8531 10.4325M21.2706 15.0104L25.8531 10.4325M6.0918 29.4416C6.95983 31.4229 8.25633 33.1877 9.88816 34.6091C11.52 36.0305 13.4467 37.0732 15.5298 37.6623M15.5298 37.6623C16.653 36.7536 18.0546 36.2577 19.5 36.2577C20.9454 36.2577 22.347 36.7536 23.4702 37.6623M15.5298 37.6623C14.8295 38.229 14.259 38.9392 13.8567 39.7448L12.675 42.1039C12.675 42.1039 10.725 46 6.825 46H32.175C28.275 46 26.325 42.1039 26.325 42.1039L25.1433 39.7448C24.741 38.9392 24.1704 38.2291 23.4702 37.6623M8.775 18.7273L11.7 21.6494M0 26.5195H17.55M25.8531 10.4325C28.5273 11.7216 30.7455 13.7931 32.2131 16.3718C33.6807 18.9504 34.3282 21.914 34.0696 24.8691C33.811 27.8241 32.6586 30.6305 30.7653 32.9156C28.8721 35.2007 26.3277 36.8563 23.4702 37.6623M26.325 3.14286L28.47 1" stroke="#069C67" stroke-width="1.9552"/>
</svg>
