<svg width="41" height="41" viewBox="0 0 41 41" fill="none" xmlns="http://www.w3.org/2000/svg">
<path d="M39.5503 14.0445C42.0027 11.5922 40.8844 8.72797 39.5503 7.33508L33.6645 1.4496C31.1925 -1.00268 28.3477 0.115559 26.9547 1.4496L23.6195 4.80432H18.5381C14.8104 4.80432 12.6523 6.76615 11.5536 9.02225L2.84265 17.7327V25.5801L1.44968 26.9533C-1.00273 29.4252 0.115565 32.2699 1.44968 33.6628L7.33546 39.5482C8.3949 40.6076 9.53282 41 10.6119 41C12.0049 41 13.2801 40.3134 14.0453 39.5482L19.3425 34.2317H26.3858C29.7211 34.2317 31.4083 32.1522 32.0165 30.1119C34.2335 29.5233 35.4499 27.8361 35.9404 26.1882C38.9814 25.4035 40.1193 22.5196 40.1193 20.4989V14.6134H38.9618L39.5503 14.0445ZM36.1954 20.4989C36.1954 21.3817 35.8227 22.4607 34.2335 22.4607H32.2716V24.4226C32.2716 25.3054 31.8988 26.3844 30.3096 26.3844H28.3477V28.3462C28.3477 29.229 27.975 30.3081 26.3858 30.3081H17.7337L11.2986 36.7428C10.6904 37.3118 10.3372 36.9783 10.1214 36.7625L4.25523 30.9162C3.68627 30.308 4.0198 29.9549 4.23561 29.7391L6.7665 27.1887V19.3414L10.6904 15.4178V18.5371C10.6904 20.9109 12.2599 24.4226 16.5761 24.4226C20.8924 24.4226 22.4619 20.9109 22.4619 18.5371H36.1954V20.4989ZM36.7644 11.2587L33.4291 14.6134H18.5381V18.5371C18.5381 19.4199 18.1653 20.4989 16.5761 20.4989C14.987 20.4989 14.6142 19.4199 14.6142 18.5371V12.6516C14.6142 11.7492 14.9477 8.72797 18.5381 8.72797H25.2283L29.7014 4.25501C30.3096 3.68608 30.6628 4.01959 30.8786 4.23539L36.7448 10.0816C37.3137 10.6898 36.9802 11.0429 36.7644 11.2587Z" fill="#069C67"/>
</svg>
