<svg width="38" height="38" viewBox="0 0 38 38" fill="none" xmlns="http://www.w3.org/2000/svg">
<path d="M26.2933 0V2.05769C25.0936 2.26375 23.9542 2.73252 22.9569 3.43046L21.4467 2.01086L19.4346 4.16222L20.898 5.53353C20.2285 6.50923 19.7759 7.61711 19.5707 8.78252H17.5132V11.7095H19.5707C19.7843 12.9242 20.2643 14.0307 20.9433 15.0024L19.3878 16.5098L21.495 18.6173L23.0022 17.0601C23.9739 17.7392 25.0802 18.2192 26.2947 18.4329V20.4891H29.2214V18.4314C30.3866 18.2267 31.4943 17.7745 32.47 17.1055L33.8397 18.569L35.9908 16.5552L34.5714 15.0478C35.2592 14.0672 35.7274 12.933 35.944 11.7081H38V8.78105H35.9425C35.7319 7.59606 35.2633 6.47188 34.5699 5.48816L35.9425 4.11539L33.8836 2.05769L32.5125 3.43046C31.5289 2.73701 30.4048 2.26835 29.22 2.05769V0H26.2933ZM27.7566 4.8486C28.4665 4.84394 29.1703 4.98031 29.8271 5.24982C30.4838 5.51932 31.0806 5.91658 31.5826 6.41855C32.0847 6.92053 32.482 7.51722 32.7517 8.174C33.0213 8.83078 33.1579 9.53458 33.1534 10.2446C33.1534 13.2521 30.7638 15.642 27.7566 15.642C24.7495 15.642 22.3598 13.2521 22.3598 10.2446C22.3598 7.23705 24.7495 4.84714 27.7566 4.84714V4.8486ZM8.77711 13.4906L6.08164 14.5883L7.13232 17.2372C5.73369 18.0743 4.55717 19.2359 3.70225 20.6238L1.0975 19.57L0 22.2702L2.60474 23.321C2.39917 24.1127 2.29203 24.9267 2.28574 25.7446C2.28574 26.5788 2.41012 27.3925 2.60474 28.1681L0 29.2219L1.0975 31.9191L3.70225 30.8654C4.54937 32.2714 5.72679 33.4495 7.13232 34.2973L6.07871 36.9024L8.77857 38L9.83218 35.395C10.6236 35.6011 11.4376 35.7082 12.2555 35.714C13.0896 35.714 13.9061 35.5896 14.6788 35.395L15.7324 38L18.4293 36.9024L17.3757 34.2973C18.7644 33.4435 19.9261 32.2666 20.7619 30.8669L23.4105 31.9177L24.508 29.2204L21.8594 28.1667C22.0496 27.391 22.1784 26.5759 22.1784 25.7431C22.1784 24.9089 22.0511 24.0923 21.8564 23.3181L24.5095 22.2673L23.412 19.5671L20.7633 20.6208C19.9228 19.2365 18.7613 18.0749 17.3772 17.2343L18.4308 14.5853L15.7309 13.4877L14.6817 16.1366C13.8894 15.9324 13.0751 15.8257 12.2569 15.8191C11.4228 15.8191 10.6092 15.9449 9.83364 16.1381L8.78004 13.4892L8.77711 13.4906ZM12.254 18.7475C16.1509 18.7475 19.2488 21.8502 19.2488 25.746C19.2517 29.6434 16.1509 32.7884 12.254 32.7884C11.329 32.7896 10.4128 32.6082 9.55794 32.2547C8.70309 31.9012 7.92637 31.3825 7.27227 30.7284C6.61817 30.0742 6.09953 29.2974 5.74607 28.4424C5.39261 27.5875 5.21126 26.6712 5.21241 25.746C5.21241 21.8487 8.3586 18.7475 12.254 18.7475Z" fill="#069C67"/>
</svg>
